<svg xmlns="http://www.w3.org/2000/svg" viewBox="0 0 492.57 492.04"><defs><style>.cls-1{fill:#e39e2d;}.cls-2,.cls-5{fill:#422a04;}.cls-3{fill:#3c58e3;}.cls-4{fill:none;}.cls-4,.cls-5{stroke:#1a1a1a;stroke-miterlimit:10;stroke-width:5px;}.cls-6{fill:#fff;}</style></defs><g id="Calque_2" data-name="Calque 2"><g id="Calque_2-2" data-name="Calque 2"><path class="cls-1" d="M.57,246c0,62.07,17.07,128.72,55,172,45.09,51.45,117.21,74,191,74,63.15,0,126.44-18.88,170-58,50.15-45,76-115.29,76-188,0-64.71-21.15-127.08-62-171-44.92-48.28-112.85-75-184-75-64.88,0-130,21-174,62C24.47,106.9.57,175,.57,246Z"/></g><g id="Calque_5" data-name="Calque 5"><path class="cls-2" d="M354.57,335c0,37.3-49.13-32.56-108.92-32.56S138.07,372.34,138.07,335s48.46-67.54,108.25-67.54S354.57,297.74,354.57,335Z"/></g><g id="Calque_6" data-name="Calque 6"><path class="cls-2" d="M.11,241H32.45l68.62,130,15-12,65.49,46,65-33-.5,120A276.81,276.81,0,0,1,82,443,187.91,187.91,0,0,1,18.71,355,307.42,307.42,0,0,1,.11,241Z"/><path class="cls-2" d="M492,241H459.69L391.07,371l-15-12-65.49,46-64-32.19L246.07,492A276.81,276.81,0,0,0,410.15,443,187.91,187.91,0,0,0,473.43,355,307.42,307.42,0,0,0,492,241Z"/><polygon class="cls-2" points="263.6 486 227.54 486 227.54 383.82 246.77 373 263.6 383.82 263.6 486"/></g><g id="Calque_3" data-name="Calque 3"><path class="cls-3" d="M344.57,343c0,16.23-1.93,33.07,4,44,6.38,11.75,21,18,31,18,10.58,0,25.58-6.08,32-19,5.31-10.7,3-27.75,3-43,0-17.45,1.74-33.88-5-45-6.27-10.34-20.68-16-30-16s-24.71,5.5-31,16C341.92,309.1,344.57,325.68,344.57,343Z"/></g><g id="Calque_4" data-name="Calque 4"><line class="cls-4" x1="129.57" y1="157.5" x2="362.57" y2="159.5"/><path class="cls-5" d="M219.86,198c0,35.93-77.6,99.13-125.16,99.13-28.49,0-42.35-55.87-45.85-78.07-3.72-23.54-8.71-44.79,5-52,19.59-10.42,42.6-9.92,70.63-9.92,32.45,0,77-3.1,91.7,8.68C223,171.23,219.86,186.55,219.86,198Z"/><path class="cls-5" d="M274,200c0,35.93,77.6,99.13,125.16,99.13,28.49,0,42.35-55.87,45.85-78.07,3.72-23.54,8.71-44.78-4.95-52-19.6-10.41-42.61-9.92-70.64-9.92-32.45,0-77-3.1-91.7,8.68C270.87,173.22,274,188.54,274,200Z"/></g><g id="Calque_7" data-name="Calque 7"><path class="cls-6" d="M316.57,354.47c0,10.41-9.36,17.69-23,14-12.05-3.26-27-17-48-17-22.66,0-37.09,15.08-49,18a16.83,16.83,0,0,1-21-16c0-19.6,26.26-37,71-37S316.57,334.87,316.57,354.47Z"/></g></g></svg>